<svg version="1.1" id="Layer_1" xmlns="http://www.w3.org/2000/svg" xmlns:xlink="http://www.w3.org/1999/xlink" x="0px" y="0px" viewBox="0 0 1200 1200" enable-background="new 0 0 1200 1200" xml:space="preserve">
<path fill="#1C1C1C" d="M984.762,642.399C896.575,596.97,831.09,361.257,614.431,349.953
	c-162.704-8.489-242.036,33.062-287.12,75.018c196.035,0.638,333.815,166.311,333.815,166.311S490.887,454.89,305.03,446.325
	c-6.025-0.278-12.066-0.422-18.118-0.422c-68.566,0-96.014,14.801-138.565,41.875C107.448,513.802,50,571.741,50,620.218v24.041
	v14.327c0,0,96.08-137.372,224.973-156.641C238.434,884.92,788.486,878.806,931.315,824.117
	C1095.536,761.238,1150,646.205,1150,646.205S1072.949,687.829,984.762,642.399z" style="fill: rgb(88, 188, 144);"></path>
</svg>
